<?xml version="1.0" ?><!DOCTYPE svg  PUBLIC '-//W3C//DTD SVG 1.1//EN'  'http://www.w3.org/Graphics/SVG/1.1/DTD/svg11.dtd'><svg height="80px" id="Layer_1" style="enable-background:new 0 0 80 80;" version="1.1" viewBox="0 0 80 80" width="80px" xml:space="preserve" xmlns="http://www.w3.org/2000/svg" xmlns:xlink="http://www.w3.org/1999/xlink"><style type="text/css">
	.st0{fill:#1C2B36;}
</style><path class="st0" d="M59.5,35c-1.2-1.7-11-2.9-11.6-4.5c-0.8-2.3,3.8-4.8,3-10.4c-0.4-3.1-3.4-8-6.2-10.2c-2-1.6-3.2-1.8-4.7-1.8  c-1.5,0-2.8,0.2-4.7,1.8c-2.8,2.2-5.8,7.1-6.2,10.2c-0.8,5.7,3.8,8.2,3,10.4c-0.6,1.6-10.3,2.8-11.6,4.5c-1.8,2.4-7.6,13.7-8.2,17.4  c0.9,5.5,6.2,19.4,6.2,19.4c1.5,0.1,4.2-0.6,5.2-1.5c0,0-3.5-13.8-3.4-15.6c0.5-1.4,3.9-8.9,4.7-8.9c0.4,0,1.6,3.8,1.6,9.4  c0,3.1-1.5,7.6-1.8,10.5c-0.1,0.9,1.5,3.1,2.4,3.9c3.3,1.2,8.6,2.1,12.4,2c0,0,0-38.8,0-38.8c0-0.5-1.2-1.6-1.2-1.6  c-0.7-0.7-1.4-1.5-2.4-2.2c-1.8-1.2-4.2-4.8-2.6-8c1.1-2.3,2.3-3.6,3.9-4.9c1.1-0.9,1.8-1,2.7-1c0.9,0,1.6,0.1,2.7,1  c1.6,1.3,2.8,2.7,3.9,4.9c1.6,3.2-0.8,6.8-2.6,8c-1,0.7-1.7,1.4-2.4,2.2c0,0-1.2,1.1-1.2,1.6c0,0,0,38.8,0,38.8  c3.8,0.1,9.1-0.8,12.4-2c0.9-0.8,2.5-3,2.4-3.9c-0.4-3-1.8-7.4-1.8-10.5c0-5.6,1.2-9.4,1.6-9.4c0.8,0,4.2,7.4,4.7,8.9  c0.1,1.8-3.4,15.6-3.4,15.6c1,0.9,3.7,1.6,5.2,1.5c0,0,5.3-13.9,6.2-19.4C67.1,48.7,61.3,37.5,59.5,35z"/></svg>